HIERARCHY
ROOT Hips
{
	OFFSET -0.001795 -0.223333 0.028219
	CHANNELS 6 Xposition Yposition Zposition Zrotation Yrotation Xrotation 
	JOINT LeftUpLeg
	{
		OFFSET 0.069520 -0.091406 -0.006815
		CHANNELS 3 Zrotation Yrotation Xrotation
		JOINT LeftLeg
		{
			OFFSET 0.034277 -0.375199 -0.004496
			CHANNELS 3 Zrotation Yrotation Xrotation
			JOINT LeftFoot
			{
				OFFSET -0.013596 -0.397961 -0.043693
				CHANNELS 3 Zrotation Yrotation Xrotation
				JOINT LeftToe
				{
					OFFSET 0.026358 -0.055791 0.119288
					CHANNELS 3 Zrotation Yrotation Xrotation
					End Site
					{
						OFFSET 0.000000 0.000000 0.000000
					}
				}
			}
		}
	}
	JOINT RightUpLeg
	{
		OFFSET -0.067670 -0.090522 -0.004320
		CHANNELS 3 Zrotation Yrotation Xrotation
		JOINT RightLeg
		{
			OFFSET -0.038290 -0.382569 -0.008850
			CHANNELS 3 Zrotation Yrotation Xrotation
			JOINT RightFoot
			{
				OFFSET 0.015774 -0.398415 -0.042312
				CHANNELS 3 Zrotation Yrotation Xrotation
				JOINT RightToe
				{
					OFFSET -0.025372 -0.048144 0.123348
					CHANNELS 3 Zrotation Yrotation Xrotation
					End Site
					{
						OFFSET 0.000000 0.000000 0.000000
					}
				}
			}
		}
	}
	JOINT Spine
	{
		OFFSET -0.002533 0.108963 -0.026696
		CHANNELS 3 Zrotation Yrotation Xrotation
		JOINT Spine1
		{
			OFFSET 0.005487 0.135180 0.001092
			CHANNELS 3 Zrotation Yrotation Xrotation
			JOINT Spine2
			{
				OFFSET 0.001457 0.052922 0.025425
				CHANNELS 3 Zrotation Yrotation Xrotation
				JOINT Neck
				{
					OFFSET -0.002778 0.213870 -0.042857
					CHANNELS 3 Zrotation Yrotation Xrotation
					JOINT Head
					{
						OFFSET 0.005152 0.064970 0.051349
						CHANNELS 3 Zrotation Yrotation Xrotation
						End Site
						{
							OFFSET 0.000000 0.000000 0.000000
						}
					}
				}
				JOINT LeftShoulder
				{
					OFFSET 0.078845 0.121749 -0.034090
					CHANNELS 3 Zrotation Yrotation Xrotation
					JOINT LeftArm
					{
						OFFSET 0.090977 0.030469 -0.008868
						CHANNELS 3 Zrotation Yrotation Xrotation
						JOINT LeftForeArm
						{
							OFFSET 0.259612 -0.012772 -0.027456
							CHANNELS 3 Zrotation Yrotation Xrotation
							JOINT LeftHand
							{
								OFFSET 0.249234 0.008986 -0.001171
								CHANNELS 3 Zrotation Yrotation Xrotation
								End Site
								{
									OFFSET 0.000000 0.000000 0.000000
								}
							}
						}
					}
				}
				JOINT RightShoulder
				{
					OFFSET -0.081759 0.118833 -0.038615
					CHANNELS 3 Zrotation Yrotation Xrotation
					JOINT RightArm
					{
						OFFSET -0.096012 0.032551 -0.009143
						CHANNELS 3 Zrotation Yrotation Xrotation
						JOINT RightForeArm
						{
							OFFSET -0.253742 -0.013329 -0.021401
							CHANNELS 3 Zrotation Yrotation Xrotation
							JOINT RightHand
							{
								OFFSET -0.255298 0.007772 -0.005559
								CHANNELS 3 Zrotation Yrotation Xrotation
								End Site
								{
									OFFSET 0.000000 0.000000 0.000000
								}
							}
						}
					}
				}
			}
		}
	}
}
MOTION
Frames: 7
Frame Time: 0.050000
0.000000 0.955568 0.000000 0.154117 8.192466 3.673199 5.577695 -0.449809 -5.753645 -2.001805 0.005819 6.928071 0.662858 7.332292 13.937863 0.000000 0.000000 0.000000 -2.146959 0.520266 -6.024844 -2.086074 0.536384 5.905757 -4.513635 -12.242928 8.737850 0.000000 0.000000 0.000000 6.773585 0.115866 -3.050306 -0.593499 0.318498 -1.042543 -4.859455 -1.106226 -0.971109 5.504558 -4.990760 3.323603 0.000000 0.000000 0.000000 -14.057877 2.020894 -3.150942 -35.768835 -18.182674 1.397259 132.393395 -72.556673 -115.177113 0.000000 0.000000 0.000000 10.485761 -15.200289 -7.402015 40.110345 -8.063246 -5.774693 120.301076 53.089678 87.368219 0.000000 0.000000 0.000000 
0.000542 0.956041 0.000801 -0.575966 8.636996 4.613709 6.516545 -0.478804 -6.141255 -2.519298 0.106974 5.828748 1.007794 7.695014 13.275559 0.000000 0.000000 0.000000 -2.009948 0.549806 -6.281741 -1.152530 0.331120 4.703078 -4.302978 -11.787376 9.034405 0.000000 0.000000 0.000000 8.340794 0.163407 -3.917124 -1.209098 0.561936 -0.321676 -5.097965 -0.771488 -2.363786 6.009626 -5.577967 4.187163 0.000000 0.000000 0.000000 -15.563451 2.851056 -3.954873 -35.797189 -18.211132 1.550917 129.485770 -70.625051 -110.051869 0.000000 0.000000 0.000000 9.107227 -17.792533 -8.224922 39.769372 -9.718970 -6.045950 120.404962 49.018709 82.435473 0.000000 0.000000 0.000000 
0.000686 0.956010 0.001708 -0.447790 8.808795 4.353381 6.600135 -0.429143 -4.830401 -1.846806 0.055758 4.377492 -0.903298 4.641139 13.023347 0.000000 0.000000 0.000000 -1.839989 0.580712 -6.628437 -1.593885 0.432593 5.484930 -4.688937 -12.598004 9.840536 0.000000 0.000000 0.000000 8.645493 0.148986 -3.730178 -0.503337 0.330430 -2.120166 -6.377873 -0.745145 -0.271744 6.774199 -6.245466 3.869561 0.000000 0.000000 0.000000 -15.239640 3.975870 -4.469051 -36.933289 -16.867969 1.091300 132.295664 -70.687305 -113.673642 0.000000 0.000000 0.000000 10.070955 -17.047707 -8.080753 38.073564 -9.324326 -5.828624 121.643444 49.277311 84.815185 0.000000 0.000000 0.000000 
0.000476 0.956739 0.002751 -0.324853 10.060851 5.011039 6.925167 -0.484255 -5.561516 -1.924683 0.056011 4.374619 -2.240317 2.564042 12.792186 0.000000 0.000000 0.000000 -2.114286 0.626640 -7.491684 -0.972989 0.346003 6.322772 -5.353875 -13.800506 9.978316 0.000000 0.000000 0.000000 9.079576 0.229304 -4.834862 -0.640997 0.345258 -1.222401 -6.455776 -1.623454 -1.251323 6.382827 -5.806118 3.635684 0.000000 0.000000 0.000000 -15.809713 5.760043 -5.416663 -37.750621 -15.920983 0.910914 131.670587 -70.380168 -112.509393 0.000000 0.000000 0.000000 7.679312 -18.748016 -8.310635 36.781811 -9.530486 -5.540707 123.796022 45.743355 82.473956 0.000000 0.000000 0.000000 
-0.000436 0.957479 0.003783 -0.063967 10.604110 4.836750 6.601320 -0.457200 -4.759835 -1.481472 0.018057 3.769001 -2.807356 1.408964 12.128884 0.000000 0.000000 0.000000 -2.290325 0.609664 -7.478756 -1.223246 0.397344 6.673253 -5.393574 -13.830570 10.728227 0.000000 0.000000 0.000000 8.815466 0.243217 -4.984741 0.150700 -0.010539 -1.266796 -7.314624 -1.893013 -1.144019 6.301660 -5.714689 3.487611 0.000000 0.000000 0.000000 -15.834452 5.950868 -5.558221 -38.073038 -13.491663 0.215554 132.500244 -69.891681 -113.182316 0.000000 0.000000 0.000000 7.238769 -18.096406 -7.928190 35.521789 -9.250833 -5.264394 124.898357 44.703335 82.600574 0.000000 0.000000 0.000000 
-0.002027 0.957999 0.004499 -0.093211 11.165615 4.935607 7.061834 -0.470868 -4.668749 -1.655572 0.048787 3.333986 -3.560021 0.327879 12.313053 0.000000 0.000000 0.000000 -2.471871 0.600219 -7.548144 -1.180923 0.392591 6.941110 -4.842796 -12.678213 10.701018 0.000000 0.000000 0.000000 8.980127 0.284709 -5.504403 0.093592 0.037393 -1.581008 -7.573236 -2.038948 -0.514893 5.748911 -5.167093 3.019727 0.000000 0.000000 0.000000 -15.778928 6.775830 -5.952153 -39.120290 -11.841284 -0.337589 136.449435 -69.928210 -118.067531 0.000000 0.000000 0.000000 6.579222 -18.282994 -7.863016 34.950803 -9.068912 -5.152723 125.504579 43.545962 81.918736 0.000000 0.000000 0.000000 
-0.003849 0.957707 0.004703 -0.030959 11.569748 4.986286 7.132249 -0.490269 -5.041126 -1.641528 0.024200 3.977211 -3.612544 0.013954 11.779411 0.000000 0.000000 0.000000 -2.513516 0.602403 -7.677773 -1.246157 0.407393 7.173752 -4.703609 -12.352982 10.685679 0.000000 0.000000 0.000000 8.959688 0.309609 -5.827520 -0.042547 0.112274 -1.771069 -7.642118 -2.139471 -0.127914 5.910011 -5.126710 2.166882 0.000000 0.000000 0.000000 -15.690837 7.157747 -6.124940 -40.077953 -9.676696 -1.055091 144.918290 -70.037362 -128.895774 0.000000 0.000000 0.000000 6.280992 -18.357563 -7.830205 34.435476 -8.970074 -5.067975 125.407148 43.099593 81.282663 0.000000 0.000000 0.000000 
